<svg width="30" height="30" viewBox="0 0 30 30" fill="none" xmlns="http://www.w3.org/2000/svg">
<path d="M29.9518 11.463C29.8233 11.0233 29.3949 10.6715 28.9236 10.6715L19.2842 10.4516L16.0282 1.08455C15.8568 0.644782 15.4713 0.336945 15 0.336945V0.292969C14.7429 0.292969 14.4859 0.424899 14.3145 0.600806C14.1432 0.732736 14.0146 0.908642 13.9718 1.08455L10.7587 10.4076L1.11924 10.6275C0.862192 10.6275 0.605141 10.7594 0.390932 10.9353C0.219564 11.0673 0.133881 11.2432 0.0481971 11.463C-0.0803284 11.9028 0.0481971 12.4305 0.433774 12.7384L8.1453 18.7632L5.36059 28.2621C5.23206 28.7459 5.40343 29.2296 5.789 29.4935C6.00321 29.6254 6.21742 29.7134 6.43163 29.7134C6.64584 29.7134 6.86005 29.6254 7.07426 29.4935L15 23.8645L22.9686 29.4935C23.1399 29.6254 23.397 29.7134 23.6112 29.7134C23.8254 29.7134 24.0825 29.6254 24.2538 29.4935C24.6394 29.2296 24.8108 28.7019 24.6823 28.2621L21.8547 18.7632L29.5662 12.7384C29.9518 12.4305 30.0803 11.9468 29.9518 11.463ZM20.9979 17.5758L20.1839 18.1915L20.4838 19.159L22.9686 27.6904L15.814 22.6331L15 22.0614V2.53578L17.8704 10.9793L18.2131 11.9468L19.1985 11.9908L27.8954 12.1667L20.9979 17.5758Z" fill="#FFD66B"/>
</svg>
